<svg width="108" height="46" viewBox="0 0 108 46" fill="none" xmlns="http://www.w3.org/2000/svg">
<path d="M2.312 22.592C2.312 20.832 2.28 19.424 2.216 18.368C2.152 17.28 2.024 16.448 1.832 15.872C1.672 15.264 1.448 14.848 1.16 14.624C0.904 14.368 0.568 14.176 0.152 14.048V13.52C0.568 13.36 1.032 13.088 1.544 12.704C2.056 12.288 2.552 11.84 3.032 11.36C3.512 10.88 3.944 10.384 4.328 9.872C4.712 9.36 5 8.912 5.192 8.528C5.864 8.976 6.472 9.568 7.016 10.304C7.56 11.04 7.992 11.776 8.312 12.512C8.888 12.128 9.544 11.744 10.28 11.36C11.016 10.976 11.784 10.624 12.584 10.304C13.416 9.952 14.248 9.648 15.08 9.392C15.944 9.104 16.792 8.864 17.624 8.672C18.392 9.504 19.224 10.192 20.12 10.736C21.016 11.28 21.928 11.68 22.856 11.936C22.504 13.28 22.296 14.56 22.232 15.776C22.168 16.96 22.136 18.16 22.136 19.376C22.136 20.88 22.152 22.192 22.184 23.312C22.216 24.432 22.264 25.392 22.328 26.192C22.392 26.992 22.472 27.648 22.568 28.16C22.664 28.64 22.792 29.024 22.952 29.312C21.512 29.568 20.04 30.064 18.536 30.8C17.064 31.504 15.592 32.368 14.12 33.392C13.128 32.976 12.184 32.656 11.288 32.432C10.424 32.208 9.512 32.048 8.552 31.952V36.8C8.552 37.632 8.568 38.352 8.6 38.96C8.664 39.6 8.744 40.192 8.84 40.736C8.936 41.312 9.08 41.84 9.272 42.32C9.464 42.832 9.704 43.36 9.992 43.904C9.352 43.68 8.6 43.568 7.736 43.568C6.68 43.568 5.56 43.744 4.376 44.096C3.224 44.448 1.976 44.944 0.632 45.584C1.272 44.816 1.704 43.792 1.928 42.512C2.184 41.232 2.312 39.76 2.312 38.096V22.592ZM12.536 28.64C12.92 28.288 13.432 27.904 14.072 27.488C14.744 27.04 15.336 26.704 15.848 26.48C15.784 25.776 15.736 24.832 15.704 23.648C15.704 22.432 15.704 21.28 15.704 20.192C15.704 19.168 15.72 18.144 15.752 17.12C15.816 16.096 15.88 15.152 15.944 14.288C15.304 14.32 14.616 14.416 13.88 14.576C13.176 14.704 12.488 14.864 11.816 15.056C11.144 15.248 10.52 15.472 9.944 15.728C9.368 15.952 8.904 16.176 8.552 16.4V27.68C9.064 27.712 9.704 27.824 10.472 28.016C11.24 28.208 11.928 28.416 12.536 28.64ZM36.0155 33.536C35.4075 33.088 34.6555 32.672 33.7595 32.288C32.8635 31.904 31.9355 31.584 30.9755 31.328C30.0475 31.04 29.1355 30.816 28.2395 30.656C27.3755 30.496 26.6555 30.416 26.0795 30.416C26.3355 30 26.5595 29.424 26.7515 28.688C26.9435 27.92 27.0875 27.104 27.1835 26.24C27.3115 25.344 27.3915 24.432 27.4235 23.504C27.4875 22.576 27.5195 21.728 27.5195 20.96C27.5195 19.008 27.3915 17.392 27.1355 16.112C26.9115 14.8 26.6875 13.776 26.4635 13.04C27.8395 12.784 29.0875 12.288 30.2075 11.552C31.3595 10.816 32.4955 9.888 33.6155 8.768C34.9275 9.024 36.5435 9.248 38.4635 9.44C40.3835 9.6 42.2875 9.712 44.1755 9.776C44.0795 10.352 44.0315 11.072 44.0315 11.936C44.0315 12.608 44.0635 13.344 44.1275 14.144C44.1915 14.912 44.2715 15.68 44.3675 16.448C44.4635 17.216 44.5915 17.952 44.7515 18.656C44.9115 19.36 45.0875 19.968 45.2795 20.48C43.3275 20.64 41.3435 20.864 39.3275 21.152C37.3115 21.408 35.3435 21.696 33.4235 22.016C33.3915 22.944 33.3275 23.856 33.2315 24.752C33.1355 25.648 33.0555 26.432 32.9915 27.104C33.3755 27.264 33.8555 27.408 34.4315 27.536C35.0395 27.664 35.6795 27.792 36.3515 27.92C37.0235 28.016 37.6795 28.112 38.3195 28.208C38.9595 28.272 39.5035 28.32 39.9515 28.352C40.1115 27.36 40.4955 26.512 41.1035 25.808C41.7435 25.104 42.8155 24.528 44.3195 24.08C44.2875 24.464 44.2715 24.848 44.2715 25.232C44.2715 25.584 44.2715 25.936 44.2715 26.288C44.2715 27.376 44.3035 28.24 44.3675 28.88C44.4635 29.488 44.6235 30.096 44.8475 30.704C44.2395 30.768 43.5195 30.896 42.6875 31.088C41.8555 31.248 41.0235 31.472 40.1915 31.76C39.3595 32.016 38.5595 32.288 37.7915 32.576C37.0555 32.896 36.4635 33.216 36.0155 33.536ZM32.9435 13.088C33.1035 14.432 33.2155 15.616 33.2795 16.64C33.3755 17.664 33.4395 18.608 33.4715 19.472L39.0875 18.08C38.9275 17.44 38.7835 16.768 38.6555 16.064C38.5595 15.36 38.5115 14.64 38.5115 13.904C37.7755 13.904 36.8795 13.84 35.8235 13.712C34.7995 13.552 33.8395 13.344 32.9435 13.088ZM55.4525 27.488C56.1565 27.552 56.8765 27.6 57.6125 27.632C58.3805 27.664 59.3245 27.808 60.4445 28.064V21.296C59.5165 21.648 58.6205 21.952 57.7565 22.208C56.8925 22.432 56.1565 22.576 55.5485 22.64L55.4525 27.488ZM67.8365 12.176C67.3245 12.912 66.9885 13.888 66.8285 15.104C66.7005 16.32 66.6365 18.096 66.6365 20.432C66.6365 21.968 66.6685 23.2 66.7325 24.128C66.8285 25.024 66.9565 25.744 67.1165 26.288C67.2765 26.8 67.5005 27.168 67.7885 27.392C68.0765 27.584 68.4285 27.728 68.8445 27.824V28.352C68.3965 28.512 67.9165 28.8 67.4045 29.216C66.9245 29.6 66.4445 30.032 65.9645 30.512C65.4845 30.992 65.0525 31.488 64.6685 32C64.2845 32.512 63.9965 32.96 63.8045 33.344C63.1325 32.896 62.5245 32.304 61.9805 31.568C61.4365 30.832 61.0045 30.096 60.6845 29.36L57.3725 33.344C56.1565 32.608 54.8125 32.048 53.3405 31.664C51.9005 31.28 50.2525 31.072 48.3965 31.04C48.7165 30.208 48.9085 29.168 48.9725 27.92C49.0365 26.64 49.0685 25.36 49.0685 24.08C49.0685 23.312 49.0205 22.592 48.9245 21.92C48.8285 21.216 48.6685 20.592 48.4445 20.048C49.1485 20.144 49.9165 20.192 50.7485 20.192C51.6445 20.192 52.5565 20.16 53.4845 20.096C54.4445 20 55.3565 19.872 56.2205 19.712C57.0845 19.552 57.8685 19.376 58.5725 19.184C59.3085 18.96 59.9165 18.72 60.3965 18.464V13.712C59.3085 14.192 58.1725 14.592 56.9885 14.912C55.8045 15.232 54.8285 15.392 54.0605 15.392C53.5165 15.392 53.0045 15.344 52.5245 15.248C52.0765 15.12 51.6605 14.896 51.2765 14.576C50.8925 14.224 50.5405 13.744 50.2205 13.136C49.9325 12.528 49.6765 11.744 49.4525 10.784C49.6445 10.784 49.7725 10.8 49.8365 10.832C49.9325 10.832 50.1725 10.832 50.5565 10.832C52.8605 10.832 54.8445 10.624 56.5085 10.208C58.1725 9.792 59.4685 9.312 60.3965 8.768C61.4525 9.92 62.5405 10.784 63.6605 11.36C64.8125 11.904 66.2045 12.176 67.8365 12.176ZM80.2464 13.568V24.176C80.2464 25.84 80.6464 27.088 81.4464 27.92C82.2784 28.752 83.3024 29.2 84.5184 29.264V29.936C83.9744 30.128 83.3984 30.368 82.7904 30.656C82.1824 30.944 81.5904 31.248 81.0144 31.568C80.4384 31.856 79.8944 32.16 79.3824 32.48C78.8704 32.8 78.4704 33.088 78.1824 33.344C77.4464 32.896 76.6944 32.464 75.9264 32.048C75.1584 31.632 74.5184 31.296 74.0064 31.04V13.184H70.0224V12.656C71.4304 12.112 72.7584 11.28 74.0064 10.16V8.624C74.0064 8.368 73.9744 7.968 73.9104 7.424C73.8784 6.848 73.8304 6.272 73.7664 5.696C73.7024 5.088 73.6224 4.544 73.5264 4.064C73.4304 3.552 73.3184 3.216 73.1904 3.056C74.6304 2.96 75.9584 2.672 77.1744 2.192C78.3904 1.712 79.6864 1.104 81.0624 0.367998C80.9344 0.687998 80.8224 1.184 80.7264 1.856C80.6304 2.528 80.5344 3.248 80.4384 4.016C80.3744 4.752 80.3264 5.472 80.2944 6.176C80.2624 6.848 80.2464 7.328 80.2464 7.616V10.16H87.0144V10.352C86.5024 10.896 86.0384 11.504 85.6224 12.176C85.2384 12.848 84.9664 13.504 84.8064 14.144L80.2464 13.568ZM95.5419 12.656C95.4779 13.168 95.4299 13.664 95.3979 14.144C95.3979 14.624 95.3979 15.184 95.3979 15.824C95.3979 16.464 95.4139 17.104 95.4459 17.744C95.4779 18.384 95.5259 18.96 95.5899 19.472C96.1979 19.248 96.8219 19.056 97.4619 18.896C98.1339 18.736 98.8699 18.592 99.6699 18.464C100.502 18.336 101.43 18.224 102.454 18.128C103.478 18.032 104.678 17.936 106.054 17.84C105.958 18.96 105.91 20.592 105.91 22.736C105.91 24.56 105.942 26.192 106.006 27.632C106.07 29.04 106.182 30.112 106.342 30.848C105.35 30.848 104.342 30.912 103.318 31.04C102.294 31.168 101.318 31.344 100.39 31.568C99.4619 31.792 98.5979 32.064 97.7979 32.384C96.9979 32.704 96.3259 33.056 95.7819 33.44C95.3979 33.088 94.9659 32.784 94.4859 32.528C94.0379 32.272 93.4939 32.064 92.8539 31.904C92.2139 31.712 91.4619 31.568 90.5979 31.472C89.7339 31.344 88.7099 31.248 87.5259 31.184C87.5899 30.192 87.7819 29.184 88.1019 28.16C88.4539 27.104 88.8859 26.256 89.3979 25.616C90.1339 25.616 91.2859 25.888 92.8539 26.432C94.4219 26.976 96.5019 27.824 99.0939 28.976C99.2859 27.952 99.4299 27.024 99.5259 26.192C99.6219 25.328 99.6699 24.432 99.6699 23.504C99.6699 22.928 99.6699 22.512 99.6699 22.256C99.6699 22 99.6539 21.76 99.6219 21.536C98.2139 21.664 96.5819 21.904 94.7259 22.256C92.8699 22.576 91.1259 22.96 89.4939 23.408C89.6219 22.032 89.7019 20.976 89.7339 20.24C89.7659 19.472 89.7819 18.784 89.7819 18.176C89.7819 16.736 89.7019 15.472 89.5419 14.384C89.4139 13.296 89.1899 12.288 88.8699 11.36C90.0859 11.36 91.3979 11.152 92.8059 10.736C94.2139 10.32 95.9739 9.664 98.0859 8.768C100.102 9.792 103.11 10.448 107.11 10.736C106.534 12.112 105.878 13.12 105.142 13.76C104.406 14.368 103.494 14.672 102.406 14.672C101.926 14.672 101.382 14.624 100.774 14.528C100.166 14.432 99.5419 14.288 98.9019 14.096C98.2939 13.904 97.6859 13.696 97.0779 13.472C96.5019 13.216 95.9899 12.944 95.5419 12.656Z" fill="white"/>
</svg>
